<?xml version="1.0" encoding="utf-8"?>
<!-- Generator: Adobe Illustrator 28.3.0, SVG Export Plug-In . SVG Version: 6.00 Build 0)  -->
<svg version="1.1" id="Layer_1" xmlns="http://www.w3.org/2000/svg" xmlns:xlink="http://www.w3.org/1999/xlink" x="0px" y="0px"
	 viewBox="0 0 1080 271.9" style="enable-background:new 0 0 1080 271.9;" xml:space="preserve">
<style type="text/css">
	.st0{fill:#15639C;}
	.st1{fill:#8F8F8F;}
</style>
<g>
	<path class="st0" d="M51.8,60.5C56.3,23.2,84.3,0,120.1,0c8.5,0,15.5,7,15.5,15.5s-7,15.5-15.5,15.5c-17.7,0-31,10-34.6,29.5h34.6
		c8.5,0,15.5,6.7,15.5,15.5s-7,15.5-15.5,15.5H84.6v109.7c0,9.5-7.5,17-16.7,17s-16.7-7.5-16.7-17V91.5h-11c-8.8,0-15.5-7-15.5-15.5
		s6.7-15.5,15.5-15.5H51.8L51.8,60.5z"/>
	<path class="st0" d="M254.9,199.5c-13.4,11.8-31,18.8-50.5,18.8c-43.8,0-76.9-35.5-76.9-80.5s33.2-80.5,76.9-80.5
		c19.5,0,37,7,50.5,19.2v-2.1c0-9.5,7.3-16.7,16.7-16.7s16.7,7.3,16.7,16.7V201c0,9.5-7.3,17-16.7,17s-16.7-7.5-16.7-17L254.9,199.5
		L254.9,199.5z M254.9,137.8v-2.1c-1.2-27-21.3-47.5-46.8-47.5s-46.8,21.3-46.8,49.5s20.7,49.5,46.8,49.5S254.9,166.1,254.9,137.8z"
		/>
	<path class="st0" d="M301.3,137.8c0-45,34.3-80.5,80.5-80.5c25.5,0,46.8,11,58.3,24.6c3,3.7,4.8,8,4.8,11.5c0,9.2-7,15.5-16.5,15.5
		c-6.7,0-10-3.3-14.3-7c-7.5-7.5-18-13.7-32.5-13.7c-26.1,0-46.8,21.9-46.8,49.5s20.7,49.5,46.8,49.5c14,0,25-6,32.2-13.7
		c4.3-3.7,8-7.5,14.5-7.5c9.5,0,16.5,6.7,16.5,16c0,3.3-1.8,7.5-4.8,11c-11.5,14-32.5,25.2-58.3,25.2
		C335.6,218.3,301.3,182.8,301.3,137.8z"/>
	<path class="st0" d="M450.2,75.8c0-8.8,7-15.5,15.5-15.5h11V16.7C476.7,7.2,484,0,493.4,0s16.7,7.3,16.7,16.7v43.6h35.4
		c8.5,0,15.5,6.7,15.5,15.5s-7,15.5-15.5,15.5H510v55c0,26.7,14.8,40.5,35.5,40.5c8.5,0,15.5,7,15.5,15.5s-7,15.8-15.5,15.8
		c-39.2,0-69-27.7-69-71.7v-55h-11C457.2,91.3,450.2,84.3,450.2,75.8L450.2,75.8z"/>
	<path class="st0" d="M577.7,74.3c0-9.5,7.3-16.7,16.7-16.7c9.5,0,16.7,7.3,16.7,16.7v74.1c0,25.5,15.5,38.8,35,38.8
		s35-13.4,35-38.8V74.3c0-9.5,7.3-16.7,16.7-16.7s16.7,7.3,16.7,16.7v73c0,43.5-30,71-68.3,71s-68.3-27.7-68.3-71L577.7,74.3
		L577.7,74.3z"/>
	<path class="st1" d="M726.9,137.8c0-45,34.3-80.5,80.5-80.5s80.5,35.5,80.5,80.5s-34,80.5-80.5,80.5S726.9,182.8,726.9,137.8z
		 M854.2,137.8c0-27.3-20-49.5-46.8-49.5s-46.8,22.2-46.8,49.5s20,49.5,46.8,49.5S854.2,164.8,854.2,137.8z"/>
	<path class="st1" d="M894.4,137.8c0-45,34.3-80.5,80.5-80.5s80.5,35.5,80.5,80.5s-34,80.5-80.5,80.5S894.4,182.8,894.4,137.8z
		 M1021.8,137.8c0-27.3-20-49.5-46.8-49.5s-46.8,22.2-46.8,49.5s20,49.5,46.8,49.5S1021.8,164.8,1021.8,137.8z"/>
</g>
</svg>
