<svg width="70" height="70" viewBox="0 0 70 70" xmlns="http://www.w3.org/2000/svg" xmlns:xlink="http://www.w3.org/1999/xlink"><title>mass_mailing</title><defs><path d="M4 0h61c4 0 5 1 5 5v60c0 4-1 5-5 5H4c-3 0-4-1-4-5V5c0-4 1-5 4-5z" id="a"/><linearGradient x1="100%" y1="0%" x2="0%" y2="98.616%" id="c"><stop stop-color="#797C79" offset="0%"/><stop stop-color="#545554" offset="100%"/></linearGradient><path d="M16.995 35.708c-2.743 1.538-2.48 5.47.455 6.638L26.564 46c.611 7.72 1.423 11.72 2.436 12 .948.262 3.602-2.35 7.962-7.835l8.923 3.57c.47.185.965.278 1.46.278.653 0 1.299-.163 1.881-.48a3.736 3.736 0 0 0 1.906-2.665C54.969 28.136 56.548 16.513 55.868 16c-.77-.582-13.728 5.987-38.873 19.708zm13.397 16.813v-4.99l2.918 1.166-2.918 3.824zm16.952-2.217L35.08 45.398l11.18-15.631c.853-1.198-.758-2.589-1.89-1.638l-16.865 14.24-8.596-3.446 33.172-18.544-4.737 29.925z" id="d"/><path d="M16.995 33.708c-2.743 1.538-2.48 5.47.455 6.638L26.564 44c.611 7.72 1.423 11.72 2.436 12 .948.262 3.602-2.35 7.962-7.835l8.923 3.57c.47.185.965.278 1.46.278.653 0 1.299-.163 1.881-.48a3.736 3.736 0 0 0 1.906-2.665C54.969 26.136 56.548 14.513 55.868 14c-.77-.582-13.728 5.987-38.873 19.708zm13.397 16.813v-4.99l2.918 1.166-2.918 3.824zm16.952-2.217L35.08 43.398l11.18-15.631c.853-1.198-.758-2.589-1.89-1.638l-16.865 14.24-8.596-3.446 33.172-18.544-4.737 29.925z" id="e"/></defs><g fill="none" fill-rule="evenodd"><mask id="b" fill="#fff"><use xlink:href="#a"/></mask><g mask="url(#b)"><path fill="url(#c)" d="M0 0H70V70H0z"/><path d="M4 1h61c2.667 0 4.333.667 5 2V0H0v3c.667-1.333 2-2 4-2z" fill="#FFF" fill-opacity=".383"/><path d="M40.1 69H4c-2 0-4-.146-4-4.078V47.679l17-12.326L54 17l-4 33.647L40.1 69z" fill="#393939" opacity=".324"/><path d="M4 69h61c2.667 0 4.333-1 5-3v4H0v-4c.667 2 2 3 4 3z" fill="#000" fill-opacity=".383"/><use fill="#000" fill-rule="nonzero" opacity=".3" xlink:href="#d"/><use fill="#FFF" fill-rule="nonzero" xlink:href="#e"/></g></g></svg>