<svg width="50" height="50" viewBox="0 0 50 50" fill="none" xmlns="http://www.w3.org/2000/svg">
<path d="M24.9999 4L31.857 8L15.5 19V35L16 40.75L7 35.5L7 14.5L24.9999 4Z" fill="#FBB130"/>
<path d="M24.9999 4L31.857 8L15.5 19V35L16 40.75L7 35.5L7 14.5L24.9999 4Z" fill="url(#paint0_linear_3358_13688)" fill-opacity="0.2"/>
<path d="M18.0856 41.9667L11.9482 38.3866L11.9482 17.5002L30.0455 6.94336L36.3284 10.6084L22 23.5L18.0856 41.9667Z" fill="#F85318"/>
<path d="M18.0856 41.9667L11.9482 38.3866L11.9482 17.5002L30.0455 6.94336L36.3284 10.6084L22 23.5L18.0856 41.9667Z" fill="url(#paint1_linear_3358_13688)" fill-opacity="0.2"/>
<path d="M36.3285 10.6084L42.9997 14.5L42.9997 35.5L24.9998 46L18.0859 41.9668L18.0859 21.25L36.3285 10.6084Z" fill="#93407D"/>
<path d="M36.3285 10.6084L42.9997 14.5L42.9997 35.5L24.9998 46L18.0859 41.9668L18.0859 21.25L36.3285 10.6084Z" fill="url(#paint2_linear_3358_13688)" fill-opacity="0.2"/>
<defs>
<linearGradient id="paint0_linear_3358_13688" x1="7" y1="4" x2="37.2075" y2="9.10795" gradientUnits="userSpaceOnUse">
<stop stop-color="white"/>
<stop offset="1" stop-color="white" stop-opacity="0"/>
</linearGradient>
<linearGradient id="paint1_linear_3358_13688" x1="11.9482" y1="6.94336" x2="41.5276" y2="12.091" gradientUnits="userSpaceOnUse">
<stop stop-color="white"/>
<stop offset="1" stop-color="white" stop-opacity="0"/>
</linearGradient>
<linearGradient id="paint2_linear_3358_13688" x1="18.0859" y1="10.6084" x2="48.2926" y2="15.9244" gradientUnits="userSpaceOnUse">
<stop stop-color="white"/>
<stop offset="1" stop-color="white" stop-opacity="0"/>
</linearGradient>
</defs>
</svg>
